<svg xmlns="http://www.w3.org/2000/svg" width="1280" height="1280" viewBox="0 0 1280 1280">
  <defs>
    <style>
      .a {
        font-size: 539.04px;
        font-family: DINCondensed-Bold, DIN Condensed;
        font-weight: 700;
      }

      .b {
        fill: #ed1c24;
      }

      .c {
        fill: #006837;
      }
    </style>
  </defs>
  <title>AgriERP-logo-icon-logo</title>
  <g>
    <text class="a" transform="translate(422.62 703.41) scale(0.99 1)">AE</text>
    <g>
      <path class="b" d="M894,943.65s20,15.41,34.88,15.87,26.42-2.42,41.34-14.78C938.44,947.91,929.83,921.69,894,943.65Zm-47.23,12.22s18.19,17.51,32.86,19.62,26.39.53,42.42-10.06C890.23,965,884.67,937.94,846.78,955.87Zm93.08-29.63s21.64,13.09,36.58,11.85,26.19-5.45,39.83-19.52C984.9,925.46,973.25,900.44,939.86,926.24ZM750,964.52s14,21.05,27.87,26.28,25.6,6.24,43.38-.59C790.37,982.74,790.82,955.18,750,964.52Zm233-61.07s19,8.79,31.22,6.54,21.11-6.58,31.4-19.15C1019.75,897.16,1007.58,878.76,983,903.45ZM798.64,962.83s16.19,19.4,30.51,23.1,26.12,3.42,43.11-5.32C840.72,976.58,838.19,949.12,798.64,962.83Zm-23.16-33.3c-11.64,6.27-25.29,26.83-25.29,26.83,41.49,11.14,37-17,62.38-33.17C796.2,920.88,787.14,923.27,775.48,929.53Zm123.76-27.65c-16.58,1.33-25,5.64-35,14.29s-19,31.69-19,31.69C888.16,949.74,877.76,923.22,899.24,901.88Zm-42.84,13c-16.54-.51-25.31,2.85-36.22,10.35s-22.25,29.42-22.25,29.42C840.34,961.27,832.87,933.8,856.4,914.93Zm84.26-30.83c-16.45,3.21-24.36,8.42-33.49,18.15s-15.6,33.62-15.6,33.62C934.62,933,921.45,907.7,940.66,884.1Zm71.28-37.79c-13.24,5.58-19.06,11.35-25.07,21s-7.23,30.29-7.23,30.29C1013.34,888.2,1001.15,869.16,1011.94,846.31Zm-31.69,15.28c-16.14,5.13-23.52,11.23-31.62,22s-12,35.23-12,35.23C979.3,911,963.48,887.3,980.25,861.59Zm35.49,4c-4.69,9.88-4.18,15.6-4.18,15.6s5.09,2.76,16.19,1c19.37-3.15,23.76-14.12,30.65-30a160.11,160.11,0,0,1,9.61-17.6s-12.69,6.07-17.87,7.78C1034.07,847.58,1023.92,848.33,1015.74,865.57ZM730.9,959.77c22.76-4.95,21.36-27.95,37.24-33.14-16-4.08-25.31-2.7-37.59,2.26-8.85,3.57-20.55,16.48-26.7,23.3-48.93-6.58-93.48-19.14-136.72-38.46,6.33.89,12.59,1.67,18.77,2.3,11.45,1.18,22.62,2,33.43,2.34s21.26.19,31.27-.1,19.58-1,28.65-1.86,17.64-2,25.66-3.2c16.05-2.36,29.86-5.34,41.16-8,5.65-1.34,10.69-2.56,15-3.8s8-2.17,11-3.08l9.11-2.74-9.36,1.73c-3,.6-6.81,1.23-11.24,2s-9.51,1.53-15.22,2.39c-11.42,1.64-25.31,3.36-41.27,4.65-8,.59-16.48,1.11-25.44,1.35s-18.37.4-28.18.22-20-.67-30.53-1.61-21.37-2-32.46-3.61-22.43-3.64-33.95-6.1-23.23-5.17-35.07-8.36c-.7-.18-1.39-.38-2.08-.57-.72-.42-1.43-.81-2.14-1.23.58.39,1.17.75,1.76,1.12-22.88-6.22-46.32-13.84-70.06-21.72-24.84-8.24-50.55-16-76.9-21.44s-53.33-8.73-80.26-8A198.45,198.45,0,0,0,249,841.56a140.57,140.57,0,0,0-37.17,14.31,112.42,112.42,0,0,0-30,24.69,128.42,128.42,0,0,0-11.08,15.27,135.87,135.87,0,0,0-8.37,16.25c-1.25,2.72-2.22,5.53-3.31,8.27-.9,2.82-1.87,5.5-2.68,8.37a73,73,0,0,0-2.54,17.68,91.4,91.4,0,0,0,5.29,32.46,88,88,0,0,0,34.18,44.28,85.19,85.19,0,0,0,21,10.05,98.42,98.42,0,0,0,19.08,4.1,120.49,120.49,0,0,0,27-.1c3.09-.35,5.45-.7,7-1l2.39-.4-2.42.16c-1.6.13-4,.22-7.06.3a124.47,124.47,0,0,1-26.49-2.14,88.73,88.73,0,0,1-37-16.08,78.57,78.57,0,0,1-17.07-17.7,86.08,86.08,0,0,1-11.78-24.45,81.32,81.32,0,0,1-3.34-29,61.7,61.7,0,0,1,2.8-14.68c.81-2.45,1.92-5,2.86-7.5,1.11-2.46,2.09-5,3.33-7.43A123.15,123.15,0,0,1,181.68,903,115.18,115.18,0,0,1,192,889.89a104,104,0,0,1,27-20.63c20.51-11,45.17-15.43,70.2-15.78,25.14-.51,50.92,2.91,76.3,8.26a719.75,719.75,0,0,1,75.17,20.5c6.14,2,12.38,4,18.61,6s12.37,3.75,18.54,5.52c12.35,3.56,24.62,6.89,36.81,9.83s24.24,5.55,36.15,7.63c2.56.44,5.11.85,7.66,1.25,45,23.67,91.72,39.66,143.61,49.3,4.5,8.09,14.67,23.46,24.28,28.34,13.23,6.72,24.82,9,43.24,4.13C751.05,989.82,752.53,967.67,730.9,959.77Z"/>
      <g>
        <path class="c" d="M1076.87,708.56c-11.9,21.07-24.06,29.6-41.57,35.75s-47.56-2.8-47.56-2.8c16.37-20.2,30.68-29.43,55.39-30.85C1056,709.92,1064.23,716,1076.87,708.56Z"/>
        <path class="c" d="M1030,754.24c-13.34,5.93-20.78-1-33.63-1.74-24.62-1.38-39.77,6.14-58.15,24.4,0,0,28.88,12.21,46.87,8.08S1016,773.75,1030,754.24Z"/>
        <path class="c" d="M1085.43,663.51c-24.53,4.3-37.85,15.2-52,37.17,0,0,30.93,5.5,47.75-2.65s28.06-18.09,37.74-40.58C1107.1,666.38,1098.23,661.27,1085.43,663.51Z"/>
        <path class="c" d="M923.68,828.29c-14.25,2.84-20-5.57-32.34-9.07-23.71-6.73-40.06-2.67-61.84,11.18,0,0,25.59,18.18,44,18.06S906,844.23,923.68,828.29Z"/>
        <path class="c" d="M1073.52,654.81s26,1.69,39.19-6.41,21.66-17.12,28.08-36.35C1114.49,632.82,1092.43,614.79,1073.52,654.81Z"/>
        <path class="c" d="M930.94,819.79c18.3-2.13,31.89-7.75,47.79-25.55-13.87,4.4-20.5-3.33-33.16-5.47-24.29-4.1-40.11,1.71-60.29,17.85C885.28,806.62,912.66,821.91,930.94,819.79Z"/>
        <path class="c" d="M884,754.28c-20,4.65-29.54,11.49-40.32,24s-17.6,42.55-17.6,42.55C880.29,814.31,860,784,884,754.28Z"/>
        <path class="c" d="M932.83,768.31c51.64-18.18,25.32-43.46,42.6-77.72-18.69,9-26.54,17.76-34.44,32.33S932.83,768.31,932.83,768.31Z"/>
        <path class="c" d="M893.79,753.28c-9.38,13.62-12.91,44.21-12.91,44.21,53.2-12.4,29.73-40.37,50.48-72.5C911.89,731.83,903.17,739.66,893.79,753.28Z"/>
        <path class="c" d="M1015.76,651.31c-17.71,11.11-24.61,20.73-31,36.14s-3.33,46.1-3.33,46.1C1031,709.73,1002.11,687.36,1015.76,651.31Z"/>
        <path class="c" d="M1082,575.36c-13,12.43-17.19,21.76-19.93,35.68S1067,649.5,1067,649.5C1102.85,621.85,1077.4,607.32,1082,575.36Z"/>
        <path class="c" d="M1051.89,607.36c-16.51,13.21-22.39,23.62-27.09,39.73s1.52,46.37,1.52,46.37C1073.16,664.09,1042,645,1051.89,607.36Z"/>
        <path class="c" d="M1116.18,609.92c21.14-12.36,21.4-27.08,22.4-48.71.47-10.3,3.42-24.77,3.42-24.77s-12.08,12.75-17.35,17.07c-16.34,13.4-27.82,18.82-29.74,42.55-1.1,13.59,2,20,2,20S1104.06,617,1116.18,609.92Z"/>
        <path class="c" d="M553.07,843C533.69,838.46,514,832.69,494,826.12c-20.46-6.66-41.1-14.22-62.11-21.24s-42.41-13.68-64.17-18.19A301.62,301.62,0,0,0,335,781.62c-5.48-.5-10.85-1.1-16.35-1.27l-4.11-.43h-5.85l-2.1.39-4,.41a308.49,308.49,0,0,0-31,2.4,221.94,221.94,0,0,0-29.47,5.67c-18.9,5-36.32,12.57-50.45,22.58A119.13,119.13,0,0,0,159.11,845a128.36,128.36,0,0,0-14.93,32.44,155.75,155.75,0,0,0-5.11,22.18c-.44,2.57-.63,4.56-.82,5.9s-.25,2-.25,2l2.19-7.69a193.1,193.1,0,0,1,7.69-21A143.68,143.68,0,0,1,155,864.7a123.43,123.43,0,0,1,10.25-15.3,117.32,117.32,0,0,1,32.47-28.54,155.64,155.64,0,0,1,47.72-18,277.63,277.63,0,0,1,57.47-5.47l3.79,0h1.8l1.94,0,3.91.1,3.74.19c5,.21,10.12.66,15.21,1.19a308.76,308.76,0,0,1,30.87,5.1c20.7,4.39,41.45,10.87,62.25,17.69s41.67,14.12,62.57,20.57a614.09,614.09,0,0,0,62.38,16,453.57,453.57,0,0,0,59.87,7.66,417.43,417.43,0,0,0,53.95-.3,441.22,441.22,0,0,0,45.11-5.5c10.63-1.78,20-3.88,28.19-5.8,11.28-1.58,22.63-3.44,34-5.65,8.81,7.38,27.4,20.69,40.72,22.05,18.36,1.88,32.83-.69,52.12-14.61-23.61.87-36.17-22.18-60.19-22.66,20.24-14.61,12.85-38.57,28.69-55.25-20.43,2.44-30.62,8.22-42.71,19.5-8.73,8.13-16.64,28.4-20.8,39.09A599.63,599.63,0,0,1,627.2,854.57c-4.92-.38-9.89-.81-14.94-1.32a460.57,460.57,0,0,1-53.9-9"/>
      </g>
    </g>
  </g>
</svg>
