<svg xmlns="http://www.w3.org/2000/svg" width="1280" height="1280" viewBox="0 0 1280 1280">
  <defs>
    <style>
      .a {
        font-size: 242.05px;
        font-family: DINCondensed-Bold, DIN Condensed;
        font-weight: 700;
      }

      .b {
        fill: #ed1c24;
      }

      .c {
        fill: #006837;
      }
    </style>
  </defs>
  <title>AgriERP-logo-sq-logo</title>
  <g>
    <text class="a" transform="translate(228.19 581.09) scale(0.99 1)">AgriERP</text>
    <g>
      <path class="b" d="M921.85,813.57s22.2,17.1,38.7,17.61,29.32-2.69,45.88-16.4C971.15,818.29,961.6,789.2,921.85,813.57Zm-52.41,13.55s20.19,19.43,36.46,21.77,29.29.59,47.08-11.15C917.65,837.21,911.48,807.23,869.44,827.12Zm103.28-32.87s24,14.52,40.59,13.14,29.06-6,44.2-21.66C1022.7,793.39,1009.77,765.62,972.72,794.25ZM762.09,836.72s15.57,23.36,30.93,29.17,28.39,6.92,48.13-.66C806.85,856.94,807.35,826.36,762.09,836.72ZM1020.58,769s21.1,9.75,34.64,7.25,23.43-7.29,34.85-21.24C1061.37,762,1047.87,741.56,1020.58,769ZM816,834.85s18,21.52,33.85,25.63,29,3.79,47.84-5.91C862.72,850.11,859.91,819.64,816,834.85Zm-25.7-37c-12.91,7-28.07,29.77-28.07,29.77,46,12.36,41-18.81,69.22-36.8C813.32,788.3,803.26,791,790.33,797.9Zm137.32-30.68c-18.4,1.48-27.69,6.26-38.86,15.86s-21.11,35.16-21.11,35.16C915.36,820.32,903.82,790.89,927.65,767.22ZM880.12,781.7c-18.36-.56-28.09,3.16-40.19,11.48s-24.69,32.65-24.69,32.65C862.3,833.12,854,802.64,880.12,781.7Zm93.49-34.22c-18.25,3.57-27,9.35-37.16,20.15s-17.31,37.31-17.31,37.31C966.91,801.75,952.29,773.67,973.61,747.48Zm79.1-41.92c-14.7,6.18-21.16,12.59-27.83,23.29s-8,33.61-8,33.61C1054.26,752,1040.73,730.91,1052.71,705.56Zm-35.17,17c-17.91,5.69-26.09,12.47-35.09,24.37S969.1,786,969.1,786C1016.48,777.38,998.94,751,1017.54,722.51Zm39.38,4.42c-5.2,11-4.64,17.31-4.64,17.31s5.65,3.06,18,1.06c21.49-3.5,26.36-15.66,34-33.35,3.64-8.41,10.66-19.52,10.66-19.52s-14.08,6.73-19.83,8.63C1077.26,707,1066,707.8,1056.92,726.93ZM740.87,831.45c25.24-5.49,23.69-31,41.31-36.77-17.77-4.53-28.08-3-41.71,2.5-9.82,4-22.8,18.3-29.62,25.87-54.3-7.31-103.73-21.25-151.7-42.69q10.53,1.5,20.83,2.56c12.69,1.31,25.09,2.16,37.08,2.59s23.59.22,34.7-.11,21.73-1.06,31.79-2.06,19.58-2.24,28.47-3.55c17.81-2.62,33.14-5.93,45.68-8.86,6.27-1.49,11.85-2.83,16.67-4.21s8.93-2.41,12.23-3.42l10.11-3-10.38,1.9c-3.38.68-7.57,1.37-12.48,2.18S763.3,766.06,757,767c-12.67,1.83-28.09,3.74-45.8,5.17-8.86.65-18.29,1.23-28.23,1.49s-20.38.45-31.27.24-22.19-.74-33.87-1.78-23.71-2.22-36-4-24.89-4-37.67-6.77-25.78-5.74-38.92-9.28c-.77-.2-1.54-.43-2.3-.63-.8-.47-1.59-.9-2.38-1.37.65.43,1.31.83,2,1.25-25.39-6.91-51.4-15.36-77.74-24.1-27.56-9.15-56.09-17.8-85.33-23.8s-59.17-9.68-89-8.85a220.6,220.6,0,0,0-44.25,5.71,156.25,156.25,0,0,0-41.24,15.88,124.7,124.7,0,0,0-33.34,27.41,140.7,140.7,0,0,0-12.29,16.94,150.78,150.78,0,0,0-9.29,18c-1.38,3-2.46,6.14-3.67,9.18-1,3.13-2.08,6.1-3,9.29a80.76,80.76,0,0,0-2.82,19.62,101.48,101.48,0,0,0,5.87,36,97.61,97.61,0,0,0,37.93,49.13,94.55,94.55,0,0,0,23.26,11.15,109.07,109.07,0,0,0,21.17,4.55,133.47,133.47,0,0,0,30-.11c3.43-.39,6-.78,7.8-1.09l2.65-.44-2.68.18c-1.78.13-4.41.24-7.84.33a138.23,138.23,0,0,1-29.4-2.38,98.44,98.44,0,0,1-41.05-17.84,87,87,0,0,1-18.94-19.64,95.6,95.6,0,0,1-13.07-27.13,90.17,90.17,0,0,1-3.7-32.16,68.66,68.66,0,0,1,3.1-16.28c.9-2.73,2.13-5.54,3.17-8.32,1.23-2.73,2.33-5.56,3.7-8.25a135.2,135.2,0,0,1,9-15.9,128.18,128.18,0,0,1,11.47-14.53,115.28,115.28,0,0,1,30-22.88c22.75-12.25,50.12-17.13,77.89-17.51,27.89-.57,56.5,3.22,84.67,9.16a798,798,0,0,1,83.4,22.75c6.81,2.18,13.74,4.48,20.65,6.61s13.72,4.16,20.57,6.13c13.7,3.94,27.32,7.64,40.84,10.9s26.9,6.16,40.12,8.46q4.26.74,8.49,1.39c50,26.26,101.78,44,159.35,54.71,5,9,16.29,26,27,31.44,14.68,7.46,27.54,10,48,4.59C763.22,864.8,764.86,840.22,740.87,831.45Z"/>
      <g>
        <path class="c" d="M1124.75,552.7c-13.2,23.39-26.7,32.86-46.12,39.67s-52.78-3.1-52.78-3.1c18.16-22.42,34-32.65,61.47-34.23C1101.63,554.22,1110.72,561,1124.75,552.7Z"/>
        <path class="c" d="M1072.71,603.39c-14.8,6.59-23.06-1.13-37.31-1.93-27.33-1.53-44.14,6.82-64.52,27.08,0,0,32,13.55,52,9S1057.2,625,1072.71,603.39Z"/>
        <path class="c" d="M1134.25,502.73c-27.21,4.76-42,16.86-57.74,41.24,0,0,34.32,6.09,53-3s31.14-20.06,41.87-45C1158.3,505.9,1148.45,500.24,1134.25,502.73Z"/>
        <path class="c" d="M954.77,685.56c-15.81,3.16-22.2-6.17-35.89-10.06-26.3-7.47-44.44-3-68.61,12.4,0,0,28.39,20.18,48.81,20S935.15,703.25,954.77,685.56Z"/>
        <path class="c" d="M1121,493.07s28.84,1.87,43.49-7.12,24-19,31.16-40.33C1166.5,468.66,1142,448.66,1121,493.07Z"/>
        <path class="c" d="M962.83,676.13c20.3-2.36,35.38-8.6,53-28.35-15.39,4.88-22.75-3.7-36.8-6.07-26.95-4.55-44.5,1.9-66.89,19.8C912.17,661.51,942.54,678.48,962.83,676.13Z"/>
        <path class="c" d="M910.75,603.44C888.51,608.6,878,616.19,866,630.08s-19.53,47.21-19.53,47.21C906.63,670.05,884.11,636.41,910.75,603.44Z"/>
        <path class="c" d="M964.92,619c57.31-20.18,28.1-48.22,47.27-86.24-20.74,10-29.44,19.7-38.21,35.88S964.92,619,964.92,619Z"/>
        <path class="c" d="M921.61,602.33c-10.41,15.11-14.33,49-14.33,49,59-13.76,33-44.78,56-80.44C941.68,578.53,932,587.22,921.61,602.33Z"/>
        <path class="c" d="M1056.94,489.18c-19.65,12.34-27.3,23-34.34,40.11s-3.69,51.15-3.69,51.15C1073.86,554,1041.79,529.19,1056.94,489.18Z"/>
        <path class="c" d="M1130.47,404.91c-14.37,13.79-19.06,24.14-22.11,39.59s5.48,42.68,5.48,42.68C1153.58,456.49,1125.34,440.38,1130.47,404.91Z"/>
        <path class="c" d="M1097,440.42c-18.31,14.66-24.84,26.2-30.06,44.09s1.69,51.45,1.69,51.45C1120.63,503.36,1086.09,482.12,1097,440.42Z"/>
        <path class="c" d="M1168.37,443.26c23.46-13.71,23.75-30.05,24.85-54.05.53-11.42,3.8-27.48,3.8-27.48s-13.4,14.15-19.25,18.94c-18.13,14.87-30.87,20.88-33,47.21-1.22,15.08,2.24,22.2,2.24,22.2S1154.93,451.12,1168.37,443.26Z"/>
        <path class="c" d="M543.54,701.89c-21.5-5-43.41-11.45-65.54-18.74-22.69-7.39-45.59-15.78-68.91-23.57S362,644.4,337.89,639.4a335.49,335.49,0,0,0-36.3-5.63c-6.07-.55-12-1.22-18.14-1.4l-4.55-.48h-6.5l-2.33.43-4.39.45c-11.7.38-23.22,1.17-34.46,2.67a247.5,247.5,0,0,0-32.7,6.29c-21,5.6-40.3,13.95-56,25.06S114.61,691,106.41,704.07a142.36,142.36,0,0,0-16.57,36,172.84,172.84,0,0,0-5.67,24.61c-.49,2.86-.7,5.07-.91,6.55s-.28,2.26-.28,2.26.85-3,2.43-8.53a213.91,213.91,0,0,1,8.53-23.33,158.86,158.86,0,0,1,7.9-15.66,136.1,136.1,0,0,1,11.36-17,130,130,0,0,1,36-31.67,172.61,172.61,0,0,1,52.94-20A308.59,308.59,0,0,1,266,651.23l4.21,0h2l2.16.06,4.34.11,4.15.21c5.5.24,11.23.73,16.88,1.32a342.77,342.77,0,0,1,34.25,5.66c23,4.88,46,12.06,69.07,19.63s46.24,15.67,69.43,22.83a687.94,687.94,0,0,0,69.21,17.75,504.56,504.56,0,0,0,66.43,8.5,463.8,463.8,0,0,0,59.87-.34,489,489,0,0,0,50-6.1c11.79-2,22.24-4.3,31.29-6.43,12.51-1.76,25.1-3.82,37.77-6.27,9.77,8.19,30.4,22.95,45.18,24.47,20.36,2.08,36.42-.77,57.83-16.22-26.2,1-40.13-24.61-66.79-25.14,22.46-16.21,14.26-42.8,31.84-61.31-22.67,2.71-34,9.13-47.4,21.64-9.68,9-18.46,31.51-23.07,43.37a665.49,665.49,0,0,1-158.85,19.73c-5.45-.43-11-.91-16.57-1.48a511.1,511.1,0,0,1-59.81-10"/>
      </g>
    </g>
  </g>
</svg>
