<!--
  - @see       https://github.com/la51org/AgriERP for the canonical source repository
  - @copyright Copyright (c) 2019-${year} fromthestone <md@lab51.org> , Authors and Contributors
  - @license   https://github.com/la51org/AgriERP/LICENSE.md New BSD License
  -->

<svg xmlns="http://www.w3.org/2000/svg" width="1280" height="640" viewBox="0 0 1280 640">
  <defs>
    <style>
      .a {
        font-size: 250.75px;
        font-family: DINCondensed-Bold, DIN Condensed;
        font-weight: 700;
      }

      .b {
        fill: #ed1c24;
      }

      .c {
        fill: #006837;
      }
    </style>
  </defs>
  <title>AgriERP-logo-main-logo</title>
  <g>
    <text class="a" transform="translate(213.39 258.69) scale(0.99 1)">AgriERP</text>
    <g>
      <path class="b" d="M932,499.53s23,17.72,40.09,18.25,30.38-2.79,47.53-17C983.05,504.42,973.15,474.29,932,499.53Zm-54.29,14s20.91,20.14,37.77,22.56,30.34.6,48.76-11.56C927.63,524,921.24,493,877.69,513.57Zm107-34.05s24.88,15,42.05,13.61,30.1-6.26,45.79-22.43C1036.46,478.63,1023.06,449.86,984.68,479.52Zm-218.2,44s16.12,24.19,32,30.21,29.41,7.18,49.86-.68C812.84,544.47,813.37,512.79,766.48,523.52Zm267.78-70.2s21.86,10.11,35.89,7.52,24.27-7.56,36.09-22C1076.52,446.09,1062.52,424.94,1034.26,453.32ZM822.35,521.58s18.61,22.3,35.08,26.55,30,3.93,49.55-6.12C870.73,537.39,867.81,505.82,822.35,521.58ZM795.74,483.3c-13.39,7.2-29.08,30.84-29.08,30.84,47.7,12.8,42.48-19.48,71.7-38.12C819.55,473.36,809.13,476.1,795.74,483.3ZM938,451.52c-19.06,1.53-28.68,6.48-40.26,16.43s-21.86,36.42-21.86,36.42C925.25,506.53,913.3,476,938,451.52Zm-49.24,15c-19-.58-29.1,3.27-41.64,11.89s-25.57,33.83-25.57,33.83C870.29,519.79,861.7,488.21,888.75,466.52Zm96.85-35.45c-18.91,3.7-28,9.69-38.5,20.87s-17.93,38.65-17.93,38.65C978.66,487.29,963.52,458.21,985.6,431.07Zm81.94-43.43c-15.22,6.41-21.92,13.05-28.83,24.13s-8.31,34.82-8.31,34.82C1069.15,435.79,1055.13,413.91,1067.54,387.64ZM1031.1,405.2c-18.54,5.9-27,12.92-36.34,25.24s-13.83,40.5-13.83,40.5C1030,462,1011.84,434.76,1031.1,405.2Zm40.8,4.58c-5.39,11.35-4.8,17.93-4.8,17.93s5.85,3.17,18.61,1.1c22.27-3.62,27.31-16.22,35.23-34.54,3.77-8.72,11-20.23,11-20.23s-14.58,7-20.53,8.94C1093,389.1,1081.31,390,1071.9,409.78ZM744.49,518.06c26.16-5.69,24.55-32.13,42.8-38.09-18.41-4.69-29.09-3.11-43.21,2.59-10.17,4.11-23.62,18.95-30.69,26.79-56.24-7.57-107.45-22-157.15-44.22q10.9,1.55,21.58,2.66c13.15,1.35,26,2.23,38.42,2.68s24.44.22,35.94-.12,22.51-1.1,32.94-2.13,20.27-2.32,29.49-3.67c18.45-2.72,34.33-6.15,47.32-9.18,6.49-1.55,12.28-2.94,17.27-4.37s9.25-2.5,12.66-3.54l10.48-3.15-10.76,2c-3.49.7-7.83,1.42-12.92,2.26s-10.93,1.77-17.49,2.74c-13.13,1.9-29.1,3.87-47.45,5.36-9.17.67-18.94,1.27-29.24,1.54s-21.11.47-32.39.25-23-.77-35.09-1.85-24.56-2.3-37.31-4.14-25.79-4.19-39-7-26.71-5.95-40.32-9.61c-.8-.21-1.6-.45-2.39-.66-.82-.48-1.65-.93-2.46-1.41.67.44,1.35.85,2,1.29-26.3-7.16-53.25-15.91-80.54-25-28.55-9.47-58.1-18.44-88.39-24.65s-61.3-10-92.26-9.17a228.39,228.39,0,0,0-45.84,5.92,161.51,161.51,0,0,0-42.71,16.45A128.92,128.92,0,0,0,113.25,427a147.63,147.63,0,0,0-12.74,17.55,157.32,157.32,0,0,0-9.62,18.68c-1.43,3.13-2.54,6.36-3.8,9.5-1,3.24-2.15,6.33-3.08,9.63a83.71,83.71,0,0,0-2.92,20.32A105.18,105.18,0,0,0,87.17,540a101.15,101.15,0,0,0,39.29,50.89,98,98,0,0,0,24.1,11.56,113.73,113.73,0,0,0,21.94,4.71,138,138,0,0,0,31.07-.12c3.55-.4,6.26-.81,8.07-1.12l2.76-.46-2.79.18c-1.83.14-4.56.25-8.11.35A143.27,143.27,0,0,1,173,603.53a102,102,0,0,1-42.52-18.48,90.12,90.12,0,0,1-19.63-20.35,98.81,98.81,0,0,1-13.53-28.1,93.1,93.1,0,0,1-3.84-33.31,70.44,70.44,0,0,1,3.22-16.87c.93-2.83,2.2-5.74,3.28-8.62,1.27-2.83,2.41-5.75,3.83-8.54a140.4,140.4,0,0,1,9.32-16.47,133.51,133.51,0,0,1,11.89-15.06A119.23,119.23,0,0,1,156.13,414c23.57-12.69,51.92-17.75,80.7-18.14,28.89-.59,58.53,3.34,87.7,9.49a828.84,828.84,0,0,1,86.41,23.56c7.05,2.26,14.23,4.65,21.39,6.85s14.21,4.31,21.31,6.35c14.19,4.09,28.3,7.92,42.3,11.3s27.87,6.38,41.56,8.76c3,.51,5.88,1,8.8,1.44,51.77,27.21,105.44,45.59,165.08,56.68,5.18,9.29,16.87,27,27.92,32.57,15.2,7.72,28.52,10.34,49.69,4.75C767.65,552.61,769.35,527.15,744.49,518.06Z"/>
      <g>
        <path class="c" d="M1142.17,229.29c-13.67,24.23-27.66,34-47.78,41.1s-54.68-3.22-54.68-3.22c18.83-23.22,35.27-33.82,63.68-35.46C1118.22,230.86,1127.64,237.85,1142.17,229.29Z"/>
        <path class="c" d="M1088.26,281.81c-15.33,6.82-23.89-1.18-38.65-2-28.31-1.59-45.72,7.06-66.84,28.05,0,0,33.19,14,53.87,9.29S1072.19,304.23,1088.26,281.81Z"/>
        <path class="c" d="M1152,177.52c-28.19,4.94-43.51,17.47-59.81,42.73,0,0,35.56,6.31,54.89-3.06s32.26-20.79,43.38-46.64C1176.92,180.81,1166.72,174.94,1152,177.52Z"/>
        <path class="c" d="M966.08,366.93c-16.37,3.26-23-6.4-37.17-10.43-27.25-7.74-46-3.06-71.09,12.85,0,0,29.42,20.9,50.57,20.76S945.76,385.25,966.08,366.93Z"/>
        <path class="c" d="M1138.32,167.52s29.87,1.94,45-7.37,24.89-19.68,32.28-41.79C1185.42,142.23,1160.06,121.51,1138.32,167.52Z"/>
        <path class="c" d="M974.43,357.15c21-2.44,36.65-8.91,54.93-29.36-15.94,5-23.56-3.83-38.11-6.29-27.92-4.71-46.11,2-69.3,20.51C922,342,953.41,359.59,974.43,357.15Z"/>
        <path class="c" d="M920.49,281.85c-23,5.34-34,13.21-46.36,27.6s-20.22,48.91-20.22,48.91C916.21,350.86,892.89,316,920.49,281.85Z"/>
        <path class="c" d="M976.6,298c59.36-20.9,29.1-50,49-89.33-21.49,10.33-30.5,20.4-39.59,37.16S976.6,298,976.6,298Z"/>
        <path class="c" d="M931.73,280.7c-10.78,15.65-14.84,50.82-14.84,50.82,61.15-14.26,34.17-46.4,58-83.33C952.53,256,942.51,265.05,931.73,280.7Z"/>
        <path class="c" d="M1071.93,163.49c-20.36,12.78-28.29,23.83-35.57,41.54s-3.83,53-3.83,53C1089.46,230.65,1056.23,204.93,1071.93,163.49Z"/>
        <path class="c" d="M1148.1,76.19c-14.89,14.29-19.75,25-22.9,41s5.67,44.21,5.67,44.21C1172,129.63,1142.78,112.93,1148.1,76.19Z"/>
        <path class="c" d="M1113.46,113c-19,15.19-25.73,27.15-31.14,45.67s1.74,53.3,1.74,53.3C1137.9,178.18,1102.12,156.18,1113.46,113Z"/>
        <path class="c" d="M1187.36,115.92c24.3-14.21,24.6-31.13,25.74-56,.55-11.84,3.94-28.48,3.94-28.48s-13.89,14.66-19.94,19.62c-18.79,15.41-32,21.64-34.19,48.91-1.27,15.63,2.32,23,2.32,23S1173.43,124.06,1187.36,115.92Z"/>
        <path class="c" d="M540.07,383.84c-22.27-5.23-45-11.86-67.89-19.41C448.67,356.77,425,348.09,400.79,340S352,324.29,327,319.11a347.54,347.54,0,0,0-37.6-5.83c-6.29-.58-12.47-1.27-18.8-1.46l-4.71-.49h-6.73l-2.41.44-4.56.47c-12.11.39-24.05,1.21-35.69,2.76a256.61,256.61,0,0,0-33.88,6.52c-21.72,5.8-41.75,14.45-58,26s-28.93,25-37.43,38.62a147.77,147.77,0,0,0-17.17,37.29,180.51,180.51,0,0,0-5.87,25.49c-.51,3-.72,5.25-.94,6.79S63,458,63,458s.88-3.07,2.52-8.84A220.57,220.57,0,0,1,74.32,425a162.51,162.51,0,0,1,8.18-16.22,141.19,141.19,0,0,1,11.77-17.59,134.65,134.65,0,0,1,37.33-32.8,178.73,178.73,0,0,1,54.85-20.74,319,319,0,0,1,66.06-6.29l4.36,0h2.06l2.24.06,4.49.12,4.3.22c5.7.24,11.63.75,17.49,1.36A355.89,355.89,0,0,1,322.93,339c23.79,5.05,47.64,12.49,71.55,20.33S442.39,375.58,466.4,383a712.08,712.08,0,0,0,71.71,18.39,521.66,521.66,0,0,0,68.82,8.8,480.76,480.76,0,0,0,62-.34,508.7,508.7,0,0,0,51.86-6.32c12.21-2,23-4.46,32.4-6.67,13-1.82,26-4,39.13-6.5,10.12,8.49,31.5,23.78,46.81,25.35,21.1,2.16,37.73-.79,59.91-16.79-27.14,1-41.58-25.5-69.2-26.05,23.27-16.8,14.78-44.33,33-63.51-23.48,2.81-35.2,9.45-49.1,22.42-10,9.34-19.13,32.64-23.9,44.92a688.92,688.92,0,0,1-164.56,20.44q-8.46-.66-17.17-1.53a528.09,528.09,0,0,1-62-10.36"/>
      </g>
    </g>
  </g>
</svg>
